Coordinates
version=1
nRows=17
nColumns=40
inDegrees=yes

Units are S.I. units (second, meters, Newtons, ...)
If the header above contains a line with 'inDegrees', this indicates whether rotational values are in degrees (yes) or radians (no).

endheader
time	pelvis_tilt	pelvis_list	pelvis_rotation	pelvis_tx	pelvis_ty	pelvis_tz	hip_flexion_r	hip_adduction_r	hip_rotation_r	knee_angle_r	knee_angle_r_beta	ankle_angle_r	subtalar_angle_r	mtp_angle_r	hip_flexion_l	hip_adduction_l	hip_rotation_l	knee_angle_l	knee_angle_l_beta	ankle_angle_l	subtalar_angle_l	mtp_angle_l	lumbar_extension	lumbar_bending	lumbar_rotation	arm_flex_r	arm_add_r	arm_rot_r	elbow_flex_r	pro_sup_r	wrist_flex_r	wrist_dev_r	arm_flex_l	arm_add_l	arm_rot_l	elbow_flex_l	pro_sup_l	wrist_flex_l	wrist_dev_l
      1.89000000	    -33.20835905	      4.89781968	     -7.85781181	     -0.40516364	      0.57936565	     -0.90951674	    109.27477954	    -18.01338303	     12.01534538	    108.92067959	      1.90102448	     32.69754484	      0.00000000	      0.00000000	    106.32609508	    -32.85000634	      5.26614232	    112.60005597	      1.96524171	     41.25921928	      0.00000000	      0.00000000	    -23.10640360	     -6.75219555	      5.92878874	     16.20962105	    -54.34158735	     89.56005185	     91.04353926	     88.70595088	      0.00000000	      0.00000000	     21.47319013	    -58.80990507	     89.58566968	     99.39305355	     88.44521020	      0.00000000	      0.00000000
      1.89500000	    -33.17832435	      4.88431470	     -7.70965446	     -0.40472137	      0.57964368	     -0.90965958	    109.22329861	    -18.19516605	     12.03199654	    108.95768571	      1.90167036	     32.75462166	      0.00000000	      0.00000000	    106.21733677	    -32.71133172	      5.13617255	    112.55832294	      1.96451334	     41.13714154	      0.00000000	      0.00000000	    -23.17762458	     -6.70182345	      5.70838224	     16.33536520	    -54.39060258	     89.56215648	     91.21980818	     88.74092623	      0.00000000	      0.00000000	     21.36731220	    -58.92210633	     89.56965723	     99.55784534	     88.57419419	      0.00000000	      0.00000000
      1.90000000	    -33.23598768	      4.89930583	     -7.48295961	     -0.40422863	      0.57968928	     -0.91013723	    109.29181359	    -18.44995336	     12.15057706	    109.00466262	      1.90249026	     32.63512921	      0.00000000	      0.00000000	    106.18462507	    -32.39309189	      5.03684703	    112.54919968	      1.96435410	     41.19706873	      0.00000000	      0.00000000	    -23.09371740	     -6.62373644	      5.49037136	     16.33890853	    -54.33304332	     89.56638661	     91.01183003	     88.69140142	      0.00000000	      0.00000000	     21.39357659	    -58.75384683	     89.58923222	     99.26568014	     88.36646695	      0.00000000	      0.00000000
      1.90500000	    -33.17155248	      4.92000319	     -8.02791654	     -0.40397220	      0.57993454	     -0.90825535	    109.09613996	    -17.77429539	     11.91055216	    108.95142640	      1.90156112	     32.78845852	      0.00000000	      0.00000000	    106.20757842	    -33.16267523	      5.21427012	    112.60925390	      1.96540225	     41.11631945	      0.00000000	      0.00000000	    -23.08359805	     -6.94523536	      5.89077267	     16.38103336	    -54.29985753	     89.55831177	     91.17468866	     88.71808202	      0.00000000	      0.00000000	     21.28903219	    -58.99499212	     89.56761078	     99.52269064	     88.57785384	      0.00000000	      0.00000000
      1.91000000	    -33.28909850	      4.91726491	     -7.71286944	     -0.40354587	      0.57985176	     -0.90898168	    109.23408276	    -18.14220681	     12.02592488	    108.98803928	      1.90220013	     32.74244637	      0.00000000	      0.00000000	    106.24604900	    -32.76454229	      5.08459551	    112.59585739	      1.96516844	     41.12522539	      0.00000000	      0.00000000	    -22.93508287	     -6.79907009	      5.59370584	     16.33423079	    -54.36279249	     89.55698617	     91.18737005	     88.71009776	      0.00000000	      0.00000000	     21.22027571	    -58.95189185	     89.57062364	     99.46207827	     88.53031628	      0.00000000	      0.00000000
      1.91500000	    -33.18689832	      4.93268902	     -8.10230120	     -0.40311513	      0.58032422	     -0.90758985	    109.01334291	    -17.67198090	     11.86529236	    108.96891397	      1.90186633	     32.85100843	      0.00000000	      0.00000000	    106.13887308	    -33.28890121	      5.18869755	    112.60481245	      1.96532473	     41.08820097	      0.00000000	      0.00000000	    -22.97957917	     -7.03995842	      5.87197039	     16.40067836	    -54.28878084	     89.55489268	     91.18988681	     88.72057305	      0.00000000	      0.00000000	     21.19198389	    -59.04320475	     89.56416584	     99.54318822	     88.57681482	      0.00000000	      0.00000000
      1.92000000	    -33.26632051	      4.91935813	     -7.83656871	     -0.40275198	      0.58049829	     -0.90815784	    109.09963888	    -17.97706094	     11.93913784	    108.99103331	      1.90225239	     32.68939678	      0.00000000	      0.00000000	    106.13751323	    -32.96174769	      5.06719545	    112.54964118	      1.96436181	     41.08459846	      0.00000000	      0.00000000	    -22.89050650	     -6.91268881	      5.60657009	     16.40553385	    -54.34266619	     89.55220840	     91.20317216	     88.75831318	      0.00000000	      0.00000000	     21.13354965	    -59.00632117	     89.56399504	     99.50741096	     88.46786064	      0.00000000	      0.00000000
      1.92500000	    -33.14118466	      4.92616598	     -8.09168721	     -0.40229819	      0.58110995	     -0.90715789	    108.85245608	    -17.65352634	     11.84197791	    108.95307958	      1.90158997	     32.85349956	      0.00000000	      0.00000000	    105.96881282	    -33.33620696	      5.08694398	    112.55004809	      1.96436891	     41.06496146	      0.00000000	      0.00000000	    -22.98174797	     -7.08069533	      5.77165952	     16.48930139	    -54.31272000	     89.54669670	     91.23799818	     88.71835470	      0.00000000	      0.00000000	     21.12770124	    -59.08493658	     89.55686850	     99.53676160	     88.55430218	      0.00000000	      0.00000000
      1.93000000	    -33.13122871	      4.84191625	     -7.89753284	     -0.40183561	      0.58161857	     -0.90747465	    108.74822614	    -17.88410456	     11.81106666	    108.95974847	      1.90170636	     32.85298635	      0.00000000	      0.00000000	    105.90891558	    -33.05237403	      5.10838067	    112.49825361	      1.96346493	     41.03096250	      0.00000000	      0.00000000	    -23.00736901	     -6.92488695	      5.60050924	     16.48949076	    -54.37655347	     89.54277228	     91.29264567	     88.73611827	      0.00000000	      0.00000000	     21.11378453	    -59.04459656	     89.55449742	     99.48716385	     88.53919366	      0.00000000	      0.00000000
      1.93500000	    -33.27605578	      4.89340947	     -7.66748650	     -0.40159364	      0.58162651	     -0.90794111	    108.95137040	    -18.11788908	     11.94563441	    108.98802238	      1.90219984	     32.57869272	      0.00000000	      0.00000000	    105.95862387	    -32.76442874	      4.94433417	    112.43643739	      1.96238603	     40.97879944	      0.00000000	      0.00000000	    -22.80870468	     -6.87315758	      5.37404187	     16.42941130	    -54.41483732	     89.53900478	     91.30594652	     88.69996371	      0.00000000	      0.00000000	     21.09094354	    -59.02726414	     89.55650991	     99.53086565	     88.47994949	      0.00000000	      0.00000000
      1.94000000	    -33.20346119	      4.89983747	     -7.72927578	     -0.40113868	      0.58216622	     -0.90757585	    108.78402851	    -18.02203224	     11.92658092	    108.96005597	      1.90171173	     32.79538896	      0.00000000	      0.00000000	    105.81382934	    -32.86958248	      4.90221463	    112.40727666	      1.96187708	     40.96279483	      0.00000000	      0.00000000	    -22.84848768	     -6.93149846	      5.36146927	     16.49519192	    -54.42717066	     89.53518941	     91.37248701	     88.71776224	      0.00000000	      0.00000000	     21.03463466	    -59.07437383	     89.54666777	     99.50663483	     88.55705075	      0.00000000	      0.00000000
      1.94500000	    -33.21816882	      4.93406956	     -7.69632656	     -0.40075171	      0.58256808	     -0.90751068	    108.75712070	    -18.03125782	     11.96795550	    108.94858974	      1.90151161	     32.75998689	      0.00000000	      0.00000000	    105.72285868	    -32.83388570	      4.81112770	    112.37180218	      1.96125793	     40.94140792	      0.00000000	      0.00000000	    -22.78449643	     -6.96382720	      5.28112662	     16.51791385	    -54.43740282	     89.53179595	     91.33576309	     88.74236809	      0.00000000	      0.00000000	     21.00566149	    -59.08645150	     89.54629475	     99.50137766	     88.50150668	      0.00000000	      0.00000000
      1.95000000	    -33.21328009	      4.92998795	     -7.68563262	     -0.40038124	      0.58314533	     -0.90732239	    108.66320765	    -18.01285106	     11.94883243	    108.89660231	      1.90060425	     32.80262777	      0.00000000	      0.00000000	    105.63606480	    -32.81802741	      4.77012747	    112.30741710	      1.96013420	     40.96671335	      0.00000000	      0.00000000	    -22.76942553	     -6.97567372	      5.24283422	     16.50722946	    -54.45179860	     89.52275885	     91.41223086	     88.74237548	      0.00000000	      0.00000000	     20.94326264	    -59.12256814	     89.53637425	     99.51782304	     88.51586972	      0.00000000	      0.00000000
      1.95500000	    -33.24014196	      4.93064902	     -7.71728355	     -0.40010751	      0.58372694	     -0.90701711	    108.58694731	    -17.93967880	     11.89257468	    108.82038863	      1.89927407	     32.84720493	      0.00000000	      0.00000000	    105.59271117	    -32.92992780	      4.68538541	    112.24396687	      1.95902679	     40.84282775	      0.00000000	      0.00000000	    -22.72801557	     -7.00400297	      5.26474370	     16.56000017	    -54.45358126	     89.52618244	     91.44351345	     88.70393351	      0.00000000	      0.00000000	     20.93137795	    -59.11275057	     89.53372761	     99.47424026	     88.54746557	      0.00000000	      0.00000000
      1.96000000	    -33.17063333	      4.96305114	     -7.82312132	     -0.39961325	      0.58432402	     -0.90660315	    108.45359610	    -17.78870435	     11.89863640	    108.80989101	      1.89909086	     32.78936408	      0.00000000	      0.00000000	    105.40435090	    -33.00857481	      4.68260395	    112.18524629	      1.95800192	     40.91096108	      0.00000000	      0.00000000	    -22.72158062	     -7.10351789	      5.28330765	     16.57342086	    -54.41619517	     89.51716665	     91.35066180	     88.68869422	      0.00000000	      0.00000000	     20.89608445	    -59.11884532	     89.53674819	     99.41249039	     88.49138420	      0.00000000	      0.00000000
      1.96500000	    -33.21360506	      4.98841607	     -7.81107581	     -0.39932683	      0.58473834	     -0.90648133	    108.43526974	    -17.73309483	     11.94918322	    108.77080272	      1.89840864	     32.76760495	      0.00000000	      0.00000000	    105.37209650	    -33.00773892	      4.60853074	    112.12484719	      1.95694776	     40.89450512	      0.00000000	      0.00000000	    -22.61987958	     -7.12623235	      5.25981018	     16.55382155	    -54.42029581	     89.51059577	     91.35619608	     88.68963247	      0.00000000	      0.00000000	     20.88421173	    -59.11615839	     89.53051889	     99.37340885	     88.48407263	      0.00000000	      0.00000000
      1.97000000	    -33.23763913	      4.99388584	     -7.79790850	     -0.39898792	      0.58519369	     -0.90632007	    108.38525126	    -17.72137114	     11.92971878	    108.73201251	      1.89773162	     32.76921430	      0.00000000	      0.00000000	    105.32151060	    -33.00862949	      4.55748470	    112.06707725	      1.95593948	     40.81138772	      0.00000000	      0.00000000	    -22.54271680	     -7.14251125	      5.20692684	     16.54629732	    -54.42832621	     89.50579438	     91.40609000	     88.68939378	      0.00000000	      0.00000000	     20.82791895	    -59.17196392	     89.52480619	     99.39486643	     88.45919515	      0.00000000	      0.00000000
